<svg xmlns="http://www.w3.org/2000/svg" version="1.1" xmlns:xlink="http://www.w3.org/1999/xlink" xmlns:svgjs="http://svgjs.com/svgjs" width="1440" height="900" preserveAspectRatio="none" viewBox="0 0 1440 900">
    <g mask="url(&quot;#SvgjsMask1070&quot;)" fill="none">
        <path d="M354.923,354.428C386.011,353.223,416.856,341.978,432.656,315.178C448.682,287.994,445.199,254.604,430.113,226.888C414.25,197.743,388.1,172.929,354.923,172.364C320.934,171.785,292.56,195.044,275.163,224.249C257.278,254.273,247.745,291.838,266.003,321.637C283.692,350.508,321.089,355.739,354.923,354.428" fill="rgba(10, 9, 7, 0.49)" class="triangle-float1"></path>
        <path d="M534.4857978943153 223.58497716961176L307.580252416488 235.47659291511184 546.3774136398154 450.49052264743904z" fill="rgba(10, 9, 7, 0.49)" class="triangle-float1"></path>
        <path d="M-188.64 599.89 a210.4 210.4 0 1 0 420.8 0 a210.4 210.4 0 1 0 -420.8 0z" fill="rgba(10, 9, 7, 0.49)" class="triangle-float1"></path>
        <path d="M108.99306814032411 695.6314092870568L170.80420397693007 603.9926318762657 2.44046994244043 557.0953168267524z" fill="rgba(10, 9, 7, 0.49)" class="triangle-float1"></path>
        <path d="M1396.5971886322175 452.19844575031135L1360.5797242058495 195.92086989388315 1104.3021483494213 231.9383343202511 1140.3196127757892 488.2159101766793z" fill="rgba(10, 9, 7, 0.49)" class="triangle-float1"></path>
        <path d="M1296.995,44.661C1325.595,46.672,1356.942,39.542,1371.5,14.842C1386.218,-10.13,1376.797,-40.778,1362.065,-65.742C1347.63,-90.201,1325.371,-112.61,1296.995,-111.407C1269.961,-110.261,1252.906,-84.814,1240.827,-60.602C1230.278,-39.458,1227.546,-15.347,1238.67,5.5C1250.486,27.644,1271.958,42.9,1296.995,44.661" fill="rgba(10, 9, 7, 0.49)" class="triangle-float3"></path>
        <path d="M671.62 468.55 a278.19 278.19 0 1 0 556.38 0 a278.19 278.19 0 1 0 -556.38 0z" fill="rgba(10, 9, 7, 0.49)" class="triangle-float3"></path>
    </g>
    <defs>
        <mask id="SvgjsMask1070">
            <rect width="1440" height="900" fill="#ffffff"></rect>
        </mask>
        <style>
            @keyframes float1 {
            0%{transform: translate(0, 0)}
            50%{transform: translate(-10px, 0)}
            100%{transform: translate(0, 0)}
            }

            .triangle-float1 {
            animation: float1 5s infinite;
            }

            @keyframes float2 {
            0%{transform: translate(0, 0)}
            50%{transform: translate(-5px, -5px)}
            100%{transform: translate(0, 0)}
            }

            .triangle-float2 {
            animation: float2 4s infinite;
            }

            @keyframes float3 {
            0%{transform: translate(0, 0)}
            50%{transform: translate(0, -10px)}
            100%{transform: translate(0, 0)}
            }

            .triangle-float3 {
            animation: float3 6s infinite;
            }
        </style>
    </defs>
</svg>